<svg width="27" height="21" viewBox="0 0 27 21" fill="none" xmlns="http://www.w3.org/2000/svg">
<path d="M22.3426 1.75874C20.6701 0.937121 18.8818 0.340004 17.0123 0C16.7827 0.435873 16.5144 1.02213 16.3295 1.4885C14.3421 1.17467 12.3729 1.17467 10.4221 1.4885C10.2372 1.02213 9.96284 0.435873 9.73117 0C7.85958 0.340004 6.06927 0.939315 4.39682 1.76309C1.02349 7.1155 0.109029 12.335 0.566259 17.4803C2.80363 19.2347 4.97192 20.3004 7.10361 20.9978C7.62994 20.2372 8.09935 19.4286 8.50374 18.5765C7.73357 18.2692 6.99591 17.8901 6.29891 17.4498C6.48382 17.306 6.66469 17.1556 6.83944 17.0009C11.0906 19.0887 15.7097 19.0887 19.9101 17.0009C20.0869 17.1556 20.2677 17.306 20.4506 17.4498C19.7516 17.8922 19.0119 18.2714 18.2417 18.5787C18.6461 19.4286 19.1135 20.2394 19.6419 20.9999C21.7756 20.3025 23.9459 19.2369 26.1833 17.4803C26.7198 11.5155 25.2668 6.34401 22.3426 1.75874ZM9.08291 14.316C7.80674 14.316 6.76018 13.065 6.76018 11.5417C6.76018 10.0183 7.78439 8.76524 9.08291 8.76524C10.3815 8.76524 11.428 10.0162 11.4056 11.5417C11.4077 13.065 10.3815 14.316 9.08291 14.316ZM17.6666 14.316C16.3905 14.316 15.3439 13.065 15.3439 11.5417C15.3439 10.0183 16.3681 8.76524 17.6666 8.76524C18.9651 8.76524 20.0117 10.0162 19.9894 11.5417C19.9894 13.065 18.9651 14.316 17.6666 14.316Z" fill="#CBCBCB"/>
</svg>
