<svg width="130" height="23" viewBox="0 0 130 23" fill="none" xmlns="http://www.w3.org/2000/svg">
<path d="M6.91132 0.0671425H14.9268L19.2568 4.39707H6.91132C5.56521 4.39707 4.47397 5.48831 4.47397 6.83442C4.47397 8.18052 5.56521 9.27176 6.91131 9.27176H12.6162C16.3218 9.27176 19.3257 12.2757 19.3257 15.9813C19.3257 19.6869 16.3218 22.6909 12.6162 22.6909H4.475L0.145073 18.361H12.6162C13.9304 18.361 14.9958 17.2956 14.9958 15.9813C14.9958 14.6671 13.9304 13.6017 12.6162 13.6017H6.91131C3.17385 13.6017 0.144043 10.5719 0.144043 6.83442C0.144043 3.09695 3.17386 0.0671425 6.91132 0.0671425Z" fill="#D0FF00"/>
<path d="M35.3907 0.0671337H35.3938L39.7206 4.39397V7.64983C39.7233 7.67769 39.7247 7.70594 39.7247 7.73451V15.0235C39.7247 15.0521 39.7233 15.0803 39.7206 15.1082V22.6866L35.3907 18.3567V14.3253C35.3481 13.8868 34.9785 13.544 34.5288 13.544H32.5942L32.59 13.544H27.6738L27.6696 13.544H25.735C25.2568 13.544 24.8691 13.9317 24.8691 14.41V22.6904L20.5391 18.3604V0.0671337H24.8691V8.34806C24.8691 8.82501 25.2546 9.21191 25.7311 9.21404H34.5327C34.9807 9.21204 35.3483 8.86998 35.3907 8.43274V0.0671337Z" fill="#D0FF00"/>
<path d="M49.0316 0.0671427L37.1087 0.0671425L41.4386 4.39707H41.9546C42.4329 4.39707 42.8206 4.78479 42.8206 5.26306V17.495C42.8206 17.9732 42.4329 18.361 41.9546 18.361H40.9385V22.6909H52.8613L48.5314 18.361H48.0165C47.5383 18.361 47.1505 17.9732 47.1505 17.495V5.26306C47.1505 4.78487 47.5381 4.3972 48.0163 4.39707H49.0316V0.0671427Z" fill="#D0FF00"/>
<path d="M50.2454 4.39707H54.5764V0.0671433L50.2454 0.0671428V4.39707Z" fill="#D0FF00"/>
<path d="M35.3948 2.88575V4.39707H36.9061L35.3948 2.88575Z" fill="#D0FF00"/>
<path d="M39.7247 18.361V22.69L35.3957 18.361H39.7247Z" fill="#D0FF00"/>
<path d="M54.5764 22.6894L50.248 18.361H54.5764V22.6894Z" fill="#D0FF00"/>
<path d="M65.1845 0.0665787L51.9774 0.0665793C51.0208 0.0665793 50.2454 0.84201 50.2454 1.79855V18.3604L54.5753 22.6904V15.1311C54.5753 14.2542 55.2862 13.5434 56.163 13.5434L66.5174 13.5434L62.1875 9.21349H56.163C55.2862 9.21349 54.5753 8.50268 54.5753 7.62585V6.12848C54.5753 5.17194 55.3508 4.39651 56.3073 4.39651L69.3485 4.39651C69.402 4.39651 69.455 4.39408 69.5073 4.38933L65.1845 0.0665787Z" fill="#D0FF00"/>
<path d="M81.747 0.0665787L86.077 4.39651H79.1446C78.6674 4.39651 78.2804 4.78239 78.2786 5.25909V22.6895L73.9487 18.3596V10.3851L73.9487 10.3816V5.2625C73.9487 4.78423 73.5609 4.39651 73.0827 4.39651H71.2293L66.8994 0.0665787H81.747Z" fill="#D0FF00"/>
<path d="M66.5228 2.16972V4.39651H68.7496L66.5228 2.16972Z" fill="#D0FF00"/>
<path d="M96.5839 0.066578H96.5837V10.2372C96.5837 10.5747 96.1036 10.6379 96.0162 10.3119L94.6928 5.37278L89.3865 0.0665522L86.6354 10.3339C86.548 10.6599 86.0679 10.5967 86.0679 10.2592V5.58519H81.738V18.3506L86.0778 22.6904H87.807V22.6894L87.8074 22.6895L91.0499 10.5883C91.1264 10.303 91.5311 10.303 91.6076 10.5883L93.5283 17.7565L98.4622 22.6904H100.914V4.39632L96.5839 0.066578Z" fill="#D0FF00"/>
<path d="M81.7468 0.0674325H81.738V3.37444H85.0538L81.7468 0.0674325Z" fill="#D0FF00"/>
<path d="M96.5896 10.8006C96.5896 10.4088 96.7315 10.0502 96.9667 9.77329L97.2953 10.1019L98.1842 9.21299H99.9517V13.5429H98.1772C97.3004 13.5429 96.5896 12.8321 96.5896 11.9553V10.8006Z" fill="#D0FF00"/>
<path d="M102.127 13.5429L110.581 13.5429C111.057 13.546 111.441 13.9325 111.441 14.4089V16.9599V16.9618V18.3603L115.771 22.6902L115.771 9.21299L115.771 9.21206V9.21153C115.771 9.21091 115.771 9.21041 115.77 9.21041C115.77 9.21038 115.769 9.21027 115.769 9.2101L106.676 0.117249L106.676 0.116739L106.626 0.0674226C106.626 0.0673506 106.626 0.0673506 106.626 0.0674226C106.626 0.0675387 106.626 0.0674564 106.626 0.0672923V0.0668679C106.626 0.0666691 106.626 0.0665079 106.626 0.0665079L106.604 0.0665079L106.603 0.0664994H102.429L102.425 0.0665081L98.2994 0.0665083L102.629 4.39644H104.477C104.704 4.39745 104.921 4.48717 105.082 4.64634L105.086 4.65007L108.174 7.73872C108.714 8.28482 108.328 9.21297 107.558 9.21297H104.786L104.78 9.21299H102.127V13.5429Z" fill="#D0FF00"/>
<path d="M111.892 0.064209L111.892 0.0643221H110.113V1.84235H110.114L110.113 1.84313L117.286 9.01635C117.448 9.17871 117.539 9.39876 117.539 9.6282V18.3609L121.868 22.6901H121.869V9.62633C121.869 9.39704 121.96 9.17713 122.122 9.0148L129.294 1.84235H129.295V1.8418L129.295 1.84167L129.295 1.84154V0.0643221H127.518L127.517 0.064209H124.949L120.315 4.69797C119.977 5.03561 119.429 5.03542 119.091 4.69739L114.458 0.064209H111.892Z" fill="#D0FF00"/>
</svg>
