<svg width="43" height="26" viewBox="0 0 43 26" fill="none" xmlns="http://www.w3.org/2000/svg">
<path d="M8.17159 0.722254H22.1172L26.8183 5.42335H8.17159C6.71009 5.42335 5.52531 6.60813 5.52531 8.06962C5.52531 9.53111 6.71009 10.7159 8.17158 10.7159H14.3655C18.3887 10.7159 21.6502 13.9774 21.6502 18.0006C21.6502 22.0238 18.3887 25.2853 14.3655 25.2853H5.52643L0.825337 20.5842H14.3655C15.7924 20.5842 16.9491 19.4275 16.9491 18.0006C16.9491 16.5737 15.7924 15.417 14.3655 15.417H8.17158C4.11374 15.417 0.824219 12.1275 0.824219 8.06962C0.824219 4.01178 4.11375 0.722254 8.17159 0.722254Z" fill="white"/>
<path d="M38.2386 0.722196H38.2384V11.7647C38.2384 12.1311 37.7171 12.1997 37.6222 11.8458L36.1853 6.48325L30.4243 0.722168L27.4373 11.8696C27.3425 12.2236 26.8212 12.155 26.8212 11.7885V6.71386H22.1201V20.5735L26.8319 25.2853H28.7093V25.2843L28.7098 25.2844L32.2302 12.1458C32.3132 11.8361 32.7527 11.8361 32.8357 12.1458L34.921 19.9285L40.2779 25.2853H42.9395V5.42309L38.2386 0.722196Z" fill="white"/>
</svg>
