<svg width="21" height="21" viewBox="0 0 21 21" fill="none" xmlns="http://www.w3.org/2000/svg">
<path d="M19.4926 4.91964C18.3675 4.69537 17.3487 4.14207 16.5847 3.34039C15.8207 2.53872 15.3515 1.5306 15.2454 0.462988V0H11.3643V14.3537C11.3619 14.9891 11.1459 15.6079 10.7467 16.1231C10.3474 16.6382 9.78504 17.0239 9.13848 17.2258C8.49193 17.4277 7.79373 17.4358 7.14201 17.2488C6.49028 17.0619 5.91779 16.6894 5.50498 16.1836C5.08576 15.6693 4.85321 15.044 4.84105 14.3983C4.82889 13.7526 5.03775 13.1201 5.43735 12.5924C5.83695 12.0648 6.40651 11.6695 7.06344 11.4639C7.72036 11.2582 8.43051 11.2529 9.09089 11.4487V7.77421C7.61828 7.5845 6.11887 7.82848 4.80239 8.47202C3.48591 9.11556 2.4182 10.1265 1.7486 11.3634C1.07901 12.6002 0.84102 14.0012 1.06793 15.3704C1.29484 16.7395 1.97529 18.0083 3.01411 18.9993C4.00478 19.9439 5.27503 20.592 6.66272 20.8608C8.05041 21.1297 9.49258 21.007 10.8051 20.5086C12.1177 20.0102 13.2411 19.1586 14.032 18.0625C14.8229 16.9664 15.2453 15.6756 15.2454 14.3547V7.02041C16.8139 8.06537 18.6945 8.62569 20.6226 8.6225V5.02883C20.2428 5.02926 19.8641 4.99267 19.4926 4.91964Z" fill="#CBCBCB"/>
</svg>
