<svg width="25" height="21" viewBox="0 0 25 21" fill="none" xmlns="http://www.w3.org/2000/svg">
<path d="M22.3656 5.22787C22.3806 5.45571 22.3806 5.68354 22.3806 5.91348C22.3806 12.9197 17.3009 20.9999 8.01248 20.9999V20.9957C5.26866 20.9999 2.58183 20.1747 0.271973 18.6187C0.670947 18.6691 1.07192 18.6943 1.4739 18.6953C3.74775 18.6974 5.95661 17.8963 7.7455 16.4212C5.58464 16.3781 3.68976 14.8988 3.0278 12.7391C3.78475 12.8924 4.5647 12.8609 5.30765 12.6477C2.9518 12.148 1.25691 9.97461 1.25691 7.45058V7.38338C1.95887 7.7939 2.74482 8.02174 3.54877 8.04694C1.32991 6.48989 0.645949 3.3905 1.98586 0.967261C4.5497 4.27979 8.33246 6.29355 12.3932 6.50669C11.9862 4.66511 12.5422 2.73534 13.8541 1.44078C15.888 -0.566686 19.0868 -0.463793 20.9987 1.67071C22.1296 1.43658 23.2135 1.00086 24.2055 0.3835C23.8285 1.61087 23.0395 2.65345 21.9856 3.31595C22.9865 3.19206 23.9645 2.91068 24.8854 2.48126C24.2075 3.54799 23.3535 4.47718 22.3656 5.22787Z" fill="#CBCBCB"/>
</svg>
