<svg width="30" height="21" viewBox="0 0 30 21" fill="none" xmlns="http://www.w3.org/2000/svg">
<path d="M28.8595 3.27932C28.531 1.98866 27.5627 0.971996 26.3335 0.626997C24.1056 -1.58945e-07 15.171 0 15.171 0C15.171 0 6.23637 -1.58945e-07 4.00843 0.626997C2.77922 0.971996 1.81097 1.98866 1.4824 3.27932C0.885254 5.61864 0.885254 10.5 0.885254 10.5C0.885254 10.5 0.885254 15.3813 1.4824 17.7206C1.81097 19.0113 2.77922 20.0279 4.00843 20.3729C6.23637 20.9999 15.171 20.9999 15.171 20.9999C15.171 20.9999 24.1056 20.9999 26.3335 20.3729C27.5627 20.0279 28.531 19.0113 28.8595 17.7206C29.4567 15.3813 29.4567 10.5 29.4567 10.5C29.4567 10.5 29.4567 5.61864 28.8595 3.27932ZM12.3138 14.9999V5.99998L19.7367 10.5L12.3138 14.9999Z" fill="#CBCBCB"/>
</svg>
